PathFileType	4	(X/Y/Z)	RBDS020\RBDS020runT25.trc
DataRate	CameraRate	NumFrames	NumMarkers	Units	OrigDataRate	OrigDataStartFrame	OrigNumFrames
150.000000	150.000000	4	33	mm	150.000000	3375	4500
Frame#	Time	L.ASIS			L.Heel.Bottom			L.Heel.Lateral			L.Heel.Top			L.Iliac.Crest			L.MT1			L.MT5			L.PSIS			L.Shank.Bottom.Lateral			L.Shank.Bottom.Medial			L.Shank.Top.Lateral			L.Shank.Top.Medial			L.Thigh.Bottom.Lateral			L.Thigh.Bottom.Medial			L.Thigh.Top.Lateral			L.Thigh.Top.Medial			R.ASIS			R.ASY			R.Heel.Bottom			R.Heel.Lateral			R.Heel.Top			R.Iliac.Crest			R.MT1			R.MT5			R.PSIS			R.Shank.Bottom.Lateral			R.Shank.Bottom.Medial			R.Shank.Top.Lateral			R.Shank.Top.Medial			R.Thigh.Bottom.Lateral			R.Thigh.Bottom.Medial			R.Thigh.Top.Lateral			R.Thigh.Top.Medial			
		X1	Y1	Z1	X2	Y2	Z2	X3	Y3	Z3	X4	Y4	Z4	X5	Y5	Z5	X6	Y6	Z6	X7	Y7	Z7	X8	Y8	Z8	X9	Y9	Z9	X10	Y10	Z10	X11	Y11	Z11	X12	Y12	Z12	X13	Y13	Z13	X14	Y14	Z14	X15	Y15	Z15	X16	Y16	Z16	X17	Y17	Z17	X18	Y18	Z18	X19	Y19	Z19	X20	Y20	Z20	X21	Y21	Z21	X22	Y22	Z22	X23	Y23	Z23	X24	Y24	Z24	X25	Y25	Z25	X26	Y26	Z26	X27	Y27	Z27	X28	Y28	Z28	X29	Y29	Z29	X30	Y30	Z30	X31	Y31	Z31	X32	Y32	Z32	X33	Y33	Z33	

3376	22.5	2253.253862432819	1026.897844141291	888.9065276793478	1675.124872486342	295.2324848370057	959.2683593754386	1696.551587723173	277.6866505998968	913.2612464248549	1722.385675952675	300.8032095840517	952.8972307457797	2203.541262087213	1081.681729404118	857.798533884121	1764.023933043763	93.61164244129255	982.3701139034671	1726.353801155551	120.8617959092998	881.994800363142	2093.932973886563	1072.107154752963	950.7534065210431	1810.879437848682	294.9648782695656	884.9635744868228	1788.62582640874	325.1413639494847	926.2236797991739	1864.133699574731	353.8362496300823	871.9903730659831	1843.322002151528	383.5177138620811	911.7628393603718	2130.00072737561	679.2656180438495	837.3637882577441	2065.744993987903	689.2648987558777	870.3978641852405	2138.840293662	787.4310960333285	823.5641403532278	2078.635778187119	797.2824142653311	858.2624258275171	2244.494818070664	1031.996717345613	1117.025447049841	2453.21039542646	101.4471977286694	1071.336544502946	2272.34767596481	28.49623882997986	1054.418181413098	2296.150235674138	44.01809529150156	1100.095686632916	2275.489478320249	70.97565962341817	1057.812924979463	2186.950477239618	1081.396479362487	1152.64950897296	2479.59196843355	70.73532305252049	1021.832826324789	2459.636733917045	49.05640948691602	1128.016282590124	2090.912053155889	1071.530040076151	1050.125025399532	2328.072763900154	193.0370460817859	1124.718906963954	2285.30147043126	194.1695746579133	1095.979550144056	2317.349628893267	275.8728881557179	1140.972386319337	2271.709373457059	272.1760752272091	1112.88471939938	2239.171983032295	647.00872909895	1156.760860502874	2188.780783841359	628.8108962648346	1109.882480045541	2194.016062257847	747.6239872979023	1165.191625893643	2147.012627322661	730.3908986204573	1119.259444161838	
3377	22.50666666666667	2253.637129875466	1023.3087283265	889.6513935469769	1679.656771989723	302.3067292146026	960.1367653461471	1699.890377350233	284.2024237707739	913.8179750252136	1727.084485379693	306.2776181675881	953.2461424005988	2203.523156108745	1077.553037149295	857.7462545160971	1762.217896590879	97.34738157255543	981.0535796778628	1724.061704818152	126.3370301367092	881.3376835103629	2093.877834975104	1066.852993961276	950.3826513182134	1814.355086724655	297.851104460235	884.5936814020188	1793.34629095132	328.4313973704628	926.2313900870029	1869.408964880351	355.0866297042076	871.6995631550922	1849.815018377477	385.121333508978	911.8679245386428	2136.571193395414	673.4626621472689	837.123152392653	2072.011286111443	681.9216631280723	870.0299812350376	2143.020296589432	781.8514227621456	823.636393750329	2082.439759179677	790.2137214666852	858.0630462836422	2243.797483335402	1028.5801728313	1118.19765523691	2441.932985904007	96.81061943876819	1069.941032228028	2259.527780783556	27.82626516170745	1053.026019647517	2283.361652536746	43.52152810447335	1098.606729431154	2263.737971124688	70.2783292151515	1055.644125356123	2186.087975807104	1077.284673783421	1153.161463595771	2468.142024591443	65.04910018911717	1021.251307797662	2446.865845276811	45.71395775952984	1127.931818355467	2090.075517191121	1066.592714365038	1049.750608227018	2319.803867714849	189.5650082115142	1122.879212648373	2277.068881617144	192.0326339640413	1094.269695541964	2311.355687624691	272.509823981463	1139.608366153094	2265.634701486426	270.249930255134	1111.548313928028	2240.0591124478	643.8497267729554	1156.001366070588	2189.082327661601	625.4771837279442	1109.775697555149	2194.576398830255	744.3829069508589	1164.880708302616	2147.135743877277	726.936303579691	1119.483979532448	
3378	22.51333333333334	2253.808456970987	1019.406612581201	890.3390553351084	1684.734187978568	308.4792938114694	961.2128618262653	1703.917919639154	290.1379530490469	914.5212672805056	1732.224340079953	311.2708296045404	953.7615146321458	2203.32688377278	1072.965917947755	857.6638249282922	1762.43054170723	101.12364077542	979.5224372488211	1723.6332803503	131.7683714776724	880.5113327833518	2093.518199377444	1061.17108396367	950.1383914544984	1818.747825756548	300.6889182512845	884.2531711392177	1798.959430561616	331.6467599083199	926.2419057139272	1875.519277299428	356.2627503715478	871.4019877215719	1857.13083182453	386.6175961159175	911.9435944160169	2143.347619364985	667.5533941401637	836.818070463705	2078.540995676015	674.3645334617888	869.6411456200491	2147.262929833609	776.1318963347923	823.7089497403404	2086.389246314765	782.8952664817189	857.9408168637667	2242.928693992789	1024.838528716211	1119.338366397467	2429.028917949729	92.50634644757862	1068.377606499435	2245.147791526	27.3363697053196	1051.918271357482	2269.116472957075	43.25019096253417	1097.336849893845	2250.398590915027	69.76005382301334	1053.751870735499	2185.167506321977	1072.78211944841	1153.695541979117	2455.034767970935	59.79862721462076	1020.532372364105	2432.69312027667	42.80555444823708	1127.729288243073	2089.017010188062	1061.253044789702	1049.45492915053	2310.527379905087	186.3099168342676	1121.024342156006	2267.801219481471	190.3284778862182	1092.671367910098	2304.789847037035	269.3230680256725	1138.249500176988	2258.954221626141	268.7400718482001	1110.3456978414	2241.157537241653	640.5713123859606	1155.363397120303	2189.622550353571	621.947796771748	1109.792508461582	2195.220134809857	740.9527945143303	1164.694932778658	2147.363592584156	723.2201628232127	1119.842791617642	
3379	22.52	2253.723522991696	1015.253127775832	890.9321240568086	1690.31554489362	313.7461845678455	962.3965791616857	1708.650436673763	295.4759235020848	915.2925505381204	1737.793682684251	315.7851512358172	954.3931238255228	2202.906566854363	1067.971502621236	857.5418515963586	1764.660493428052	104.8648433794929	977.7936783811535	1725.167244957714	137.0559242614962	879.4954910666202	2092.813707991246	1055.151608048931	950.0080707231598	1824.084705235227	303.4606371863182	883.9448838505576	1805.46653945733	334.7711916055312	926.2477785602799	1882.466236077338	357.3753671864727	871.1070423251622	1865.249668599939	388.0204688688318	911.9858460068248	2150.312106160775	661.6609805595218	836.4747626080579	2085.30319012716	666.7280993391075	869.2184503260305	2151.571965359586	770.3806967046744	823.7979854986485	2090.474273818535	775.4520230392249	857.8796220258297	2241.892646951346	1020.847481973812	1120.416960587869	2414.803513982543	88.75509513928135	1066.749512134434	2229.609603049112	27.02012812337443	1051.091940920943	2253.784957299884	43.18651936541145	1096.30505874469	2235.807447496873	69.4148268804758	1052.18201517579	2184.16619942007	1067.930462353096	1154.234689666021	2440.602848878068	55.27681236494005	1019.748891330842	2417.468642168772	40.47920584550689	1127.436366832327	2087.718518323968	1055.595579606392	1049.216328757208	2300.44469333802	183.4051322223544	1119.225784933142	2257.710294257307	189.1444902353373	1091.254772940959	2297.783159796189	266.4162262423657	1136.930640538887	2251.814136816487	267.7024335432092	1109.321613028902	2242.357209341102	637.237019553673	1154.898906545355	2190.33942918295	618.3080244462285	1109.926892168981	2195.865118746809	737.4042977682102	1164.662638609631	2147.647138577466	719.3361332074116	1120.318687757883	
